2.2Hzlow_3min_grf.mot
version=1
nRows=10
nColumns 19
inDegrees=yes
endheader
time	1_ground_force_vx	1_ground_force_vy	1_ground_force_vz	1_ground_force_px	1_ground_force_py	1_ground_force_pz	1_ground_torque_x	1_ground_torque_y	1_ground_torque_z	2_ground_force_vx	2_ground_force_vy	2_ground_force_vz	2_ground_force_px	2_ground_force_py	2_ground_force_pz	2_ground_torque_x	2_ground_torque_y	2_ground_torque_z
            0.005000	          -25.148462	          832.619426	          -75.104277	           -0.222326	            0.006380	           -0.441470	           -0.212723	            7.042865	           -0.635283	          -15.632995	          893.004635	          126.004204	           -0.210006	            0.005913	           -0.750190	            0.162020	           -9.255058	           -1.305902
            0.005500	          -26.753443	          835.863641	          -75.040530	           -0.222080	            0.006380	           -0.441566	           -0.223152	            6.972001	           -0.625919	          -17.148828	          897.603090	          125.974332	           -0.209977	            0.005913	           -0.750267	            0.177290	           -9.279683	           -1.302359
            0.006000	          -27.991944	          839.288738	          -75.068623	           -0.222031	            0.006380	           -0.441505	           -0.227205	            6.812331	           -0.609316	          -18.423039	          900.176280	          126.077925	           -0.209799	            0.005913	           -0.749927	            0.191805	           -9.371886	           -1.312618
            0.006500	          -29.458910	          842.351896	          -74.822567	           -0.221959	            0.006381	           -0.441584	           -0.235925	            6.746058	           -0.599224	          -19.845070	          904.774236	          126.282662	           -0.209757	            0.005913	           -0.749941	            0.207957	           -9.481145	           -1.323318
            0.007000	          -31.063304	          844.874383	          -74.578487	           -0.221945	            0.006381	           -0.441696	           -0.248173	            6.749922	           -0.595827	          -21.123911	          908.636304	          126.437790	           -0.209674	            0.005913	           -0.749871	            0.219812	           -9.455142	           -1.315694
            0.007500	          -32.209257	          847.937529	          -74.287359	           -0.221746	            0.006382	           -0.441942	           -0.269633	            7.098342	           -0.621882	          -22.122547	          912.685308	          126.077239	           -0.209531	            0.005913	           -0.749776	            0.233563	           -9.635852	           -1.331085
            0.008000	          -33.447219	          850.280259	          -74.182535	           -0.221640	            0.006382	           -0.442019	           -0.289018	            7.347286	           -0.641013	          -23.681096	          916.177578	          126.371949	           -0.209493	            0.005913	           -0.749689	            0.249775	           -9.663317	           -1.332899
            0.008500	          -34.686041	          852.985080	          -74.397144	           -0.221612	            0.006383	           -0.442139	           -0.305535	            7.513601	           -0.655334	          -24.675641	          919.120901	          126.242089	           -0.209462	            0.005913	           -0.749660	            0.260734	           -9.711836	           -1.333929
            0.009000	          -36.290599	          856.408804	          -74.149200	           -0.221587	            0.006383	           -0.442154	           -0.311554	            7.352247	           -0.636569	          -25.672738	          922.799950	          126.349504	           -0.209404	            0.005912	           -0.749475	            0.272246	           -9.785821	           -1.339872
            0.009500	          -37.437594	          860.194586	          -74.221827	           -0.221581	            0.006382	           -0.441993	           -0.314066	            7.216225	           -0.622651	          -26.487216	          927.769848	          126.179872	           -0.209201	            0.005913	           -0.749572	            0.281524	           -9.860971	           -1.341126
